<svg viewBox="0 0 1024 1024" xmlns="http://www.w3.org/2000/svg"><path d="m464 144h-304c-8.8 0-16 7.2-16 16v304c0 8.8 7.2 16 16 16h304c8.8 0 16-7.2 16-16v-304c0-8.8-7.2-16-16-16zm-52 268h-200v-200h200zm452-268h-304c-8.8 0-16 7.2-16 16v304c0 8.8 7.2 16 16 16h304c8.8 0 16-7.2 16-16v-304c0-8.8-7.2-16-16-16zm-52 268h-200v-200h200zm-348 132h-304c-8.8 0-16 7.2-16 16v304c0 8.8 7.2 16 16 16h304c8.8 0 16-7.2 16-16v-304c0-8.8-7.2-16-16-16zm-52 268h-200v-200h200zm452-268h-304c-8.8 0-16 7.2-16 16v304c0 8.8 7.2 16 16 16h304c8.8 0 16-7.2 16-16v-304c0-8.8-7.2-16-16-16zm-52 268h-200v-200h200z"/></svg>